<svg width="17" height="17" viewBox="0 0 17 17" fill="none" xmlns="http://www.w3.org/2000/svg">
<path d="M0.166992 5.18533H3.63921V16.9909H0.166992V5.18533ZM1.89269 3.79644H1.87324C0.837131 3.79644 0.166992 3.02422 0.166992 2.05963C0.166992 1.07422 0.857964 0.324219 1.91283 0.324219C2.96908 0.324219 3.61977 1.07422 3.63921 2.05963C3.63921 3.02352 2.96908 3.79644 1.89269 3.79644ZM16.8337 16.9909H13.3614V10.6721C13.3614 9.14575 12.5107 8.10408 11.1448 8.10408C10.1024 8.10408 9.53852 8.80686 9.26491 9.48602C9.16491 9.72908 9.19477 10.4013 9.19477 10.7409V16.9909H5.72255V5.18533H9.19477V7.002C9.69547 6.22699 10.4795 5.18533 12.485 5.18533C14.9698 5.18533 16.833 6.74783 16.833 10.2367L16.8337 16.9909Z" fill="#07BF7D"/>
</svg>
