<svg width="152" height="39" viewBox="0 0 152 39" fill="none" xmlns="http://www.w3.org/2000/svg">
<path d="M60.0329 14.7134C59.9564 14.7134 59.8831 14.7428 59.8291 14.7953C59.7751 14.8478 59.7447 14.9189 59.7447 14.9931V28.1708C59.7447 30.5018 57.9836 32.4021 55.8201 32.4021C55.377 32.4106 54.9367 32.3319 54.5259 32.1707C54.115 32.0095 53.7421 31.7692 53.4296 31.4642C53.1171 31.1592 52.8715 30.7959 52.7077 30.3962C52.5438 29.9965 52.4651 29.5688 52.4763 29.1387V18.9802C52.4032 16.3961 51.5295 14.4559 49.8874 13.2082C46.6306 10.7485 40.8763 11.3301 36.6223 12.2448L36.2609 12.3247L36.1054 12.0006C35.335 10.3711 34.366 8.83725 33.2191 7.43186L32.5376 6.67707C31.2705 5.23212 29.789 3.97817 28.1418 2.9564C23.7963 0.261353 19.3411 -0.595556 14.9087 0.452271C9.94117 1.61554 6.83989 5.97112 7.55803 10.8018C8.01545 13.9097 9.79023 16.5204 12.8229 18.545C15.9544 20.6107 19.6628 21.6953 23.4487 21.653C25.1116 21.6446 26.7706 21.4961 28.4071 21.209C28.924 21.1113 29.4363 21.0048 29.9394 20.8982L30.2185 20.8405C35.497 19.6062 39.01 17.3773 42.6419 17.364C43.006 17.3428 43.3715 17.3637 43.7305 17.4262C43.9888 17.467 44.2361 17.5576 44.4578 17.6926C45.4642 18.3541 45.9444 19.5751 45.9444 21.0891V28.8945C45.9444 34.6088 48.968 38.0186 54.0361 38.0186C56.0305 38.0186 58.1529 37.2239 59.3056 36.0429L59.4428 35.9052H60.0969C60.1733 35.9052 60.2466 35.9347 60.3007 35.9871C60.3547 36.0396 60.3851 36.1107 60.3851 36.1849V37.0729C60.3863 37.1475 60.4177 37.2187 60.4724 37.271C60.5272 37.3233 60.601 37.3526 60.6778 37.3526H65.9884C66.0649 37.3526 66.1382 37.3232 66.1922 37.2707C66.2462 37.2183 66.2766 37.1471 66.2766 37.0729V14.9798C66.2766 14.9056 66.2462 14.8344 66.1922 14.782C66.1382 14.7295 66.0649 14.7 65.9884 14.7L60.0329 14.7134ZM29.3585 14.4026C27.612 14.9831 25.7796 15.283 23.9336 15.2906C23.5813 15.2906 23.2246 15.2906 22.8632 15.255C21.2138 15.1756 19.5928 14.8071 18.0786 14.1673C16.6208 13.5832 15.3944 12.5608 14.5794 11.2502C14.2849 10.8283 14.0995 10.3437 14.039 9.83742C13.9785 9.33117 14.0446 8.81822 14.2317 8.34205C14.4612 7.88238 14.8013 7.48306 15.2233 7.17781C15.6452 6.87257 16.1366 6.67036 16.6561 6.58827C18.7647 6.14428 20.91 6.46395 23.2566 7.58726C25.8959 8.85264 27.9771 10.8728 29.6238 13.7677L29.8891 14.2117L29.3585 14.4026Z" fill="#194766"/>
<path d="M91.4952 19.6232C91.9383 19.6147 92.3785 19.6934 92.7894 19.8546C93.2002 20.0158 93.5732 20.2561 93.8857 20.5611C94.1982 20.8661 94.4438 21.2294 94.6076 21.6291C94.7714 22.0287 94.8501 22.4565 94.8389 22.8865V37.1783C94.8383 37.2025 94.8427 37.2267 94.8518 37.2493C94.861 37.2719 94.8747 37.2925 94.8922 37.3099C94.9097 37.3272 94.9305 37.341 94.9536 37.3505C94.9767 37.3599 95.0014 37.3647 95.0264 37.3647H101.183C101.208 37.3647 101.233 37.3599 101.256 37.3505C101.279 37.341 101.3 37.3272 101.318 37.3099C101.335 37.2925 101.349 37.2719 101.358 37.2493C101.367 37.2267 101.371 37.2025 101.371 37.1783V23.1307C101.371 17.4166 98.3473 14.0068 93.2791 14.0068C91.2848 14.0068 89.1624 14.8016 88.0097 15.9826L87.8725 16.1202H87.1177C87.0927 16.1202 87.0679 16.1153 87.0449 16.1059C87.0218 16.0965 87.0009 16.0827 86.9835 16.0653C86.966 16.0479 86.9523 16.0273 86.9431 16.0047C86.934 15.9821 86.9296 15.958 86.9302 15.9337V14.8326C86.9302 14.8084 86.9252 14.7843 86.9155 14.7619C86.9058 14.7396 86.8915 14.7193 86.8736 14.7023C86.8557 14.6854 86.8345 14.6721 86.8112 14.6632C86.788 14.6543 86.7631 14.65 86.7381 14.6506H81.2491C81.1993 14.6506 81.1516 14.6698 81.1165 14.7039C81.0813 14.7381 81.0615 14.7844 81.0615 14.8326V37.1783C81.0615 37.2265 81.0813 37.2728 81.1165 37.307C81.1516 37.3411 81.1993 37.3603 81.2491 37.3603H87.4059C87.4556 37.3603 87.5033 37.3411 87.5385 37.307C87.5737 37.2728 87.5934 37.2265 87.5934 37.1783V23.8588C87.5706 21.5235 89.3316 19.6232 91.4952 19.6232Z" fill="#194766"/>
<path d="M73.624 4.70996C71.2134 4.70996 69.6582 6.10863 69.6582 8.26214C69.6582 10.4157 71.25 11.8143 73.624 11.8143C75.998 11.8143 77.6081 10.4245 77.6081 8.26214C77.6081 6.09975 76.0437 4.70996 73.624 4.70996Z" fill="#07BF7D"/>
<path d="M76.6959 14.7129H70.5711C70.4574 14.7129 70.3652 14.8023 70.3652 14.9127V37.1742C70.3652 37.2846 70.4574 37.374 70.5711 37.374H76.6959C76.8096 37.374 76.9018 37.2846 76.9018 37.1742V14.9127C76.9018 14.8023 76.8096 14.7129 76.6959 14.7129Z" fill="#194766"/>
<path d="M31.2295 23.0112C31.1562 23.0238 31.088 23.0563 31.0329 23.105C30.9778 23.1538 30.9382 23.2167 30.9185 23.2865C30.2198 25.9075 28.6302 28.2229 26.4071 29.8579C24.1839 31.4929 21.4574 32.3517 18.6689 32.2954C17.0126 32.2948 15.3749 31.9557 13.8625 31.3001C12.3502 30.6445 10.997 29.6871 9.89106 28.4902C8.33348 26.9005 7.25729 24.9249 6.78063 22.7803C6.70287 22.2963 6.218 19.0462 7.15571 16.5287C7.18196 16.455 7.18984 16.3764 7.17871 16.2992C7.16758 16.222 7.13775 16.1485 7.09167 16.0847C5.48716 13.8352 4.65334 11.1522 4.70853 8.41668C4.70889 8.38814 4.7001 8.36019 4.68338 8.33672C4.66666 8.31324 4.64283 8.29538 4.6152 8.28563C4.58756 8.27588 4.55749 8.2747 4.52914 8.28227C4.50078 8.28984 4.47556 8.30578 4.45695 8.32788C2.10427 11.3516 0.594953 14.9133 0.0748973 18.6688C-0.157808 21.2029 0.153152 23.7563 0.988155 26.1679C1.82316 28.5795 3.16407 30.7968 4.92628 32.6801C6.68849 34.5634 8.83372 36.0716 11.2266 37.1097C13.6195 38.1477 16.2081 38.6931 18.829 38.7113C22.3115 38.7058 25.7268 37.7801 28.7085 36.0334C31.6901 34.2867 34.1255 31.785 35.7534 28.7966C36.1832 28.0621 36.5386 27.2888 36.8146 26.4878C37.0674 25.8196 37.2797 25.1376 37.4504 24.4453V24.3565C37.519 24.0724 37.5831 23.7793 37.638 23.4685L37.6654 23.322C37.7203 23.0378 37.7615 22.7537 37.8026 22.4695V22.3674C37.8484 22.0255 37.8712 21.6259 37.885 21.213C37.8863 21.1799 37.8795 21.1471 37.8652 21.1171C37.8509 21.0871 37.8295 21.0609 37.8027 21.0405C37.7759 21.0201 37.7445 21.0062 37.7111 20.9999C37.6777 20.9936 37.6432 20.9951 37.6105 21.0043C35.6162 21.5859 34.0884 22.5272 31.2295 23.0112Z" fill="#194766"/>
<path d="M151.973 37.1782L143.635 26.1498C143.613 26.1192 143.601 26.0828 143.601 26.0455C143.601 26.0081 143.613 25.9717 143.635 25.9411L151.937 14.9793C151.955 14.9559 151.966 14.928 151.968 14.8989C151.971 14.8697 151.965 14.8405 151.951 14.8145C151.937 14.7885 151.916 14.7669 151.89 14.7521C151.864 14.7372 151.834 14.7298 151.804 14.7306H144.888C144.863 14.7306 144.839 14.7363 144.816 14.7471C144.794 14.7578 144.775 14.7735 144.76 14.7928L140.049 21.0307C140.032 21.0536 140.01 21.0723 139.985 21.0852C139.959 21.0981 139.931 21.1049 139.902 21.1049C139.873 21.1049 139.845 21.0981 139.82 21.0852C139.794 21.0723 139.772 21.0536 139.756 21.0307L135.035 14.7617C135.023 14.7466 135.007 14.7344 134.988 14.7259C134.97 14.7175 134.95 14.713 134.93 14.7129H127.932C127.908 14.7131 127.885 14.7197 127.864 14.732C127.844 14.7443 127.828 14.7619 127.818 14.7826C127.807 14.8033 127.803 14.8265 127.805 14.8495C127.808 14.8724 127.817 14.8943 127.831 14.9127L136.165 25.9411C136.187 25.9717 136.199 26.0081 136.199 26.0455C136.199 26.0828 136.187 26.1192 136.165 26.1498L127.858 37.1294C127.84 37.1528 127.829 37.1807 127.827 37.2098C127.824 37.2389 127.83 37.2682 127.844 37.2942C127.858 37.3201 127.879 37.3418 127.905 37.3566C127.931 37.3714 127.961 37.3789 127.991 37.378H134.903C134.928 37.3784 134.954 37.3729 134.977 37.3621C135 37.3514 135.02 37.3355 135.035 37.3159L139.747 31.1002C139.763 31.0773 139.785 31.0586 139.811 31.0456C139.836 31.0327 139.864 31.026 139.893 31.026C139.922 31.026 139.95 31.0327 139.976 31.0456C140.001 31.0586 140.023 31.0773 140.039 31.1002L144.783 37.3292C144.795 37.3448 144.811 37.3574 144.829 37.3659C144.848 37.3744 144.868 37.3785 144.888 37.378H151.882C151.905 37.3763 151.927 37.3685 151.946 37.3556C151.965 37.3427 151.98 37.325 151.989 37.3046C151.998 37.2841 152.002 37.2616 151.999 37.2393C151.996 37.2171 151.988 37.196 151.973 37.1782Z" fill="#194766"/>
<path d="M127.342 19.446C126.303 17.7696 124.794 16.4146 122.992 15.539C120.992 14.5875 118.787 14.114 116.56 14.1582C114.353 14.1114 112.171 14.6191 110.225 15.6323C108.419 16.596 106.94 18.0472 105.967 19.8101C104.917 21.762 104.395 23.9402 104.448 26.1412C104.398 28.3331 104.937 30.4998 106.012 32.4279C107.048 34.218 108.613 35.6655 110.504 36.5836C112.666 37.5977 115.047 38.0954 117.448 38.0354C119.336 38.0729 121.21 37.7077 122.937 36.9654C124.447 36.317 125.765 35.3109 126.77 34.0396C126.903 33.8709 127.022 33.7022 127.14 33.529C127.167 33.4867 127.177 33.4361 127.166 33.3875C127.156 33.3388 127.127 33.2958 127.086 33.2671L122.658 30.3013C122.643 30.2915 122.626 30.2848 122.609 30.2816C122.591 30.2783 122.573 30.2786 122.555 30.2823C122.538 30.286 122.521 30.2932 122.507 30.3033C122.492 30.3134 122.48 30.3264 122.47 30.3412C121.976 31.0616 121.338 31.679 120.595 32.1571C120.513 32.2193 120.43 32.2814 120.339 32.3391C119.762 32.6948 119.118 32.9362 118.445 33.0495C117.618 33.2417 116.76 33.2692 115.922 33.1303C115.084 32.9914 114.283 32.6891 113.569 32.2415C112.57 31.6315 111.748 30.7832 111.183 29.7774C110.618 28.7716 110.327 27.642 110.34 26.4964V25.2755C110.326 23.7948 110.84 22.3551 111.794 21.1998C112.748 20.0445 114.084 19.2446 115.576 18.9355C117.068 18.6263 118.624 18.8269 119.981 19.5032C121.338 20.1796 122.413 21.2902 123.024 22.6471C123.035 22.6734 123.039 22.702 123.037 22.7304C123.034 22.7588 123.024 22.786 123.007 22.8098C122.991 22.8335 122.969 22.8529 122.943 22.8664C122.917 22.8798 122.888 22.8869 122.859 22.8869H113.592C113.543 22.8866 113.495 22.9015 113.456 22.9295C113.416 22.9574 113.387 22.997 113.372 23.0423C112.961 24.4202 112.891 25.8728 113.166 27.2822C113.185 27.3589 113.23 27.4271 113.294 27.4755C113.358 27.524 113.437 27.5497 113.519 27.5486H128.682C128.706 27.549 128.729 27.5412 128.747 27.5266C128.766 27.5119 128.778 27.4914 128.783 27.4687C128.904 26.7751 128.963 26.0723 128.956 25.3687C128.976 23.2895 128.419 21.2435 127.342 19.446Z" fill="#194766"/>
</svg>
