<svg width="20" height="15" viewBox="0 0 20 15" fill="none" xmlns="http://www.w3.org/2000/svg">
<path d="M18.8311 0.352407C18.0841 0.705324 16.8126 1.36716 16.1737 1.49366C16.149 1.50007 16.1288 1.50832 16.105 1.51474C15.3597 0.779573 14.3386 0.32399 13.2083 0.32399C10.9304 0.32399 9.0833 2.17107 9.0833 4.44899C9.0833 4.56907 9.07322 4.78999 9.0833 4.90732C6.13347 4.90732 3.97931 3.36824 2.36689 1.39007C2.15147 1.12424 1.9223 1.26266 1.87464 1.45149C1.76739 1.87866 1.73072 2.59274 1.73072 3.10241C1.73072 4.38666 2.73447 5.64799 4.29739 6.42991C4.00955 6.50416 3.69239 6.55732 3.36239 6.55732C2.97372 6.55732 2.52639 6.45557 2.13497 6.25024C1.99014 6.17416 1.67756 6.19524 1.77014 6.56557C2.14139 8.04966 3.83539 9.09191 5.3488 9.39532C5.00505 9.59791 4.27172 9.55665 3.93439 9.55665C3.80972 9.55665 3.37614 9.52732 3.09564 9.49249C2.83989 9.46132 2.44664 9.52732 2.77572 10.026C3.48247 11.0957 5.08114 11.7677 6.45706 11.7933C5.19022 12.787 3.11856 13.15 1.13397 13.15C0.732472 13.1408 0.752639 13.5982 1.07622 13.7678C2.54014 14.536 4.93814 14.9907 6.65139 14.9907C13.4622 14.9907 17.3333 9.79957 17.3333 4.90641C17.3333 4.82757 17.3315 4.66257 17.3287 4.49666C17.3287 4.48016 17.3333 4.46457 17.3333 4.44807C17.3333 4.42332 17.326 4.39949 17.326 4.37474C17.3232 4.25007 17.3205 4.13366 17.3177 4.07316C17.8576 3.68357 18.6845 3.00707 19.1025 2.48916C19.2446 2.31316 19.13 2.09957 18.9366 2.16649C18.4388 2.33974 17.5781 2.67524 17.0391 2.73941C18.118 2.02532 18.6515 1.40382 19.1098 0.713574C19.2666 0.47799 19.0704 0.23874 18.8311 0.352407Z" fill="#07BF7D"/>
</svg>
